<?xml version="1.0" encoding="UTF-8"?>
<svg xmlns="http://www.w3.org/2000/svg" height="976" viewBox="0 0 977 976" width="977">
  <circle cx="487.6" cy="488" fill="#2d2d2c" r="474"></circle>
  <circle cx="488" cy="488" fill="none" r="471.2" stroke="#f4f4f4" stroke-miterlimit="10" stroke-width="25"></circle>
  <g fill="#a02d2a">
    <path d="m841.4 633.6c3.2 2.1 6 3.9 9.3 6-.7 1.3-1.4 2.5-2.2 4.1-3.2-2-6.1-3.9-9.5-6.1-4.1 6.4-8.1 12.6-12.3 19.2-1.1-.7-2.2-1.4-3.5-2.2 4.2-6.4 8.1-12.5 12.4-19.1-3.4-2.2-6.7-4.3-10.4-6.8-5.1 7.9-9.9 15.5-15.1 23.4-1.1-.6-2.2-1.2-3.6-1.9 4.7-7.3 9.2-14.3 14.2-22.1-12.8.4-23.1 4.7-32.8 10.4-.3-.1-.5-.1-.6-.2-.6-1.1-1.1-2.2-1.8-3.6 9.8-6.3 20.4-9.5 33-10.3-8-5.2-15-9.7-22.3-14.4.8-1.3 1.4-2.5 2.3-4 7.4 4.8 14.5 9.4 22.7 14.7-4.6-10.1-5.7-19.8-5.5-29.7.1-3.3 1.1-4.8 5-4-.6 11.1-.6 22.3 4.6 33.9 4.6-7.2 8.8-13.8 13.4-20.8 1.1.6 2.3 1.3 3.6 2.1-5 7.7-9.7 15-14.6 22.6 3.6 2.3 6.7 4.4 10.3 6.8 2.5-3.8 6-7.1 6.8-11 .7-3.7-1.5-7.9-2.5-12.3.8-.3 2-.8 2.7-1.1 3.8 6.9 7.5 13.5 11.6 20.9-.3.3-1.2 1.2-2.6 2.6-2-2.8-3.5-4.9-5.5-7.7-2.3 3.5-4.5 6.7-7.1 10.6z"></path>
    <path d="m860.5 402.4c-16.2 5.1-32.4 10.1-50 15.6.7-2.7 1.2-4.6 1.7-6.4.5.1 1.1.1 1.6.2-3.5-11.3-7-22.7-10.2-33-2.5-1.5-4.3-2.5-6.1-3.5.2-.5.3-1 .5-1.5 16.2-5 32.3-10.1 48.9-15.2.8 2.7 1.7 5.4 2.5 8 2.3 7.4 2.3 7.6 9.9 7.9 3.4.1 4.1 1.4 3.1 4.8-1.5-.1-3-.2-4.6-.3-1.4-.1-2.7-.3-4.8-.5 2.6 8.2 5 15.9 7.5 23.9zm-42.5 8.5c6.2-1.9 11.7-3.7 17.5-5.5-3.8-12.1-7.4-23.4-11-35-6.1 1.9-11.5 3.6-17.4 5.4 3.6 11.8 7.1 23.1 10.9 35.1zm37-11.6c-3.8-12.1-7.3-23.4-10.9-35.1-5.4 1.7-10.3 3.2-15.5 4.9 3.8 12.1 7.3 23.4 10.9 35.1 5.3-1.7 10.1-3.2 15.5-4.9z"></path>
    <path d="m716.4 778.8c.6 2.9-.2 4.6-3.3 3.8-5.1-1.3-6.5 1-6 5.7.3 3 .3 6 .6 10.2 7.4-5.5 13.8-10.3 20.5-15.4.9 1 1.7 2.1 2.6 3.1-7.3 5.4-14.3 10.7-21.7 16.2 2 2.7 3.8 5.2 5.9 8.1-1 .9-2.2 1.8-3.4 2.8-2.1-2.8-4-5.3-6.2-8.2-7.5 5.6-14.7 11.1-22.3 16.7-.8-1-1.6-2-2.6-3.2 6.9-5.2 13.5-10.2 20.2-15 2.2-1.6 2.9-3.2 2.7-6-.4-5.1-.1-10.2-.1-15.6-4.2-.6-8.1-1.2-12.7-1.9v23.7c-1.9.3-3.2.6-6 1 1.3-14.2 2.5-27.9 3.8-42.5-7 6.5-13.6 12.7-21.1 19.6 4.8 1.4 8.5 2.4 12.3 3.5.2.4.5.8.7 1.1-1.4.7-2.9 2.3-4 2-7.4-1.8-14.7-4-22.5-6.2.7-1.9 1.1-3.1 1.5-4.2.7 0 1.1-.2 1.3-.1 5.1 3.2 8.5 1.4 12.5-2.7 9.6-9.7 19.9-18.8 30.1-28.3 1.4 1.2 2.5 2.1 3.6 3.1-.4.6-.5 1.1-.8 1.3-8.8 4.1-9.4 12.3-10.4 20.4-.4 2.9.4 4.4 3.6 4.6 7 .9 13.9 1.7 21.2 2.4z"></path>
    <path d="m675 208.6c-2.8 3.2-5.2 6-7.8 9-1-.7-2.1-1.5-3.4-2.4 7.1-8.3 13.9-16.4 21.1-24.9 10.1 8.6 20.3 17.2 30.6 26-5.6 6.6-11.1 12.9-16.4 19.4-2.6 3.1-5.3 3.2-8.2.8-1.7-1.4-3.6-2.8-4.9-4.5-.8-1-.7-2.8-1.2-5.5 4.2 3.1 6.8 5.4 9.8 6.9.7.3 2.8-2.4 4.8-4.2-8.4-7-16.2-13.6-24.4-20.6zm7.8-9c8 6.8 15.8 13.4 23.8 20.3 1.1-1.3 2.1-2.3 3.2-3.6-8.1-6.9-16-13.6-24.1-20.5-1.1 1.5-1.9 2.5-2.9 3.8zm-5.5 6.3c8.1 6.9 15.8 13.5 23.8 20.3 1.2-1.3 2-2.3 3.1-3.6-8.1-6.9-15.9-13.6-23.8-20.3-1.1 1.4-2 2.3-3.1 3.6z"></path>
    <path d="m706 191.9c-5-4.2-9.2-7.9-13.6-11.3-2.6-2-1.8-3.2.4-4.5 4.4 3.8 8.7 7.6 13.2 11.1 1 .8 2.9.4 4.4.5.2-.6.4-1.2.5-1.9-6-5.1-12-10.2-18.3-15.6.7-.9 1.4-1.9 2.1-3 6.2 5.3 12.3 10.5 18.6 15.8 1.4-1.6 2.5-2.8 3.9-4.3 1 .9 2.1 1.7 3.3 2.7-1.2 1.6-2.2 2.9-3.6 4.7 5.7 4.8 11.1 9.6 16.9 14.1 2.5 1.9 2.1 3.1-.3 4.6-6.2-5.3-12.4-10.5-18.6-15.8-3.1 1.7-3.2 3.2-.5 5.3 4 3.1 7.8 6.5 11.7 9.8 2.2 1.9 2.3 1.9-.3 4.4-5.3-4.5-10.6-9-16.6-14-.9 1.2-1.6 2.3-2.8 3.9 6.3 5.4 12.5 10.8 18.9 16 2.6 2.1 1.7 3.2-.6 4.4-14.9-12.6-29.6-25.2-44.7-38 .9-1 1.6-1.9 2.4-2.7 6.8 5.8 13.3 11.3 20.3 17.3 1.1-1.1 2.1-2.2 3.3-3.5z"></path>
    <path d="m451.8 876.9c1.4-.1 2.6-.1 4.1-.2.2 2.2.3 4.2.5 6.7h16.3c-1.8-4.6 3.4-10.9-2.7-13.5-7-3-11.9-.7-13.6 4.9-1.3-.8-3.5-1.9-3.4-2.2.7-2.1 1.7-5.7 2.9-5.8 6.2-.5 12.6-.3 18.9.1.8 0 1.9 2.7 2 4.2.3 4.1.1 8.2.1 12.9 2.6.1 5.2.3 8.2.5.9-13.4 10.3-18.2 21.4-21.7.8 1.2 1.6 2.3 2.6 3.8-9.4 2.8-18.6 5.4-19.5 17.7h13c2.8-2.4-2.1-8.7 5.1-8.6v12.9c-8.3 0-16.3 0-24.7 0-.1 2.4-.2 4.8-.4 7.6-1.2.1-2.5.2-4.2.4 0-2.8 0-5.3 0-8.6-8.9 0-17.6 0-26.5 0-.1-4.3-.1-7.5-.1-11.1z"></path>
    <path d="m483.7 842v12.9c5.8 0 11.5.1 17.2 0 2.9-.1 3.7 1.1 2.8 3.5-15.6 0-31 0-46.4 0-1-3.1-1-4.7 2.6-4.5 6 .2 12.1.1 18.7.1 0-3.7 0-7.7 0-13.1-7.9 0-16.1-.1-24.3.1-3.4.1-3.8-1.2-3-3.6h58.6c1.2 5 1.2 4.9-2.9 4.9-7.7-.4-15.3-.3-23.3-.3z"></path>
    <path d="m111.2 577.7c.5-.9 1.2-2.1 2.4-4 5.9 4.9 11.4 9.7 17.2 14 1.6 1.2 4.3 2 6.2 1.5 5.7-1.3 11.3-3.4 17-5 2.7-.8 3.7-2.3 2.9-4.9-.2-.8-.4-1.5-.6-2.3-2.9-10-3.5-10.3-13.7-8.4-.7.1-1.5.1-2.4.2-.8-2.9.2-4.2 3-4.8 10.3-2.3 13.1-.8 16.2 9.2 4 12.8 4 12.9-8.9 16.8-14 4.3-28 8.6-42.5 13-.5-1.4-1-2.7-1.5-4.4 7.4-2.3 14.4-4.4 22.9-6.9-6.6-5.1-12.3-9.5-18.2-14z"></path>
    <path d="m168.5 619c-1.4 1.1-2.5 2-3.5 2.8-4.3-4.7-8.3-9.2-12.7-13.4-1.2-1.1-3.7-1.7-5.3-1.3-4.9 1.2-9.7 2.9-15.1 4.6 1.7 5.7 3.3 11.1 5 16.9-1.1.5-2.2.9-3.7 1.5-1.8-5.7-3.5-11.1-5.4-17.2-5.2 1.6-10.2 3.1-15.5 4.7-.5-1.4-1-2.7-1.6-4.3 19.3-5.9 38.3-11.7 57.6-17.6.5 1.4 1 2.7 1.7 4.3-5 1.5-9.6 3-15 4.6 4.7 4.9 8.9 9.4 13.5 14.4z"></path>
    <path d="m182.7 354.4c-11 16.8-21.6 33-32.5 49.5-1.3-.8-2.6-1.6-3.9-2.5 10.8-16.5 21.4-32.7 32.3-49.3 1.3.7 2.6 1.4 4.1 2.3z"></path>
    <path d="m113.1 373.7c-1.4-1-2.6-1.8-3.8-2.6 9-13.8 17.9-27.3 26.9-41.1 1.3.8 2.4 1.5 3.9 2.5-9 13.7-17.9 27.2-27 41.2z"></path>
    <path d="m134.4 382.5c-1.4-1-2.4-1.7-3.3-2.3-.1-.4-.2-.6-.1-.7 7.2-11 14.4-22 21.7-33.2 1.3.8 2.5 1.5 4 2.4-3.8 5.8-7.5 11.3-11.1 16.8s-7.2 11-11.2 17z"></path>
    <path d="m275.6 162.1c.9 1.1 1.7 2.2 2.7 3.4-6.6 5.8-13 11.5-19.7 17.4 4 4.4 7.6 8.5 11.6 12.9 5.6-5 10.9-9.8 16.4-14.7.9 1 1.8 1.9 2.9 3.2-5.5 4.9-10.7 9.7-16.4 14.7 5.1 5.8 10 11.3 15.2 17.1 7.2-6.4 14.1-12.5 21.4-18.9 1 1.1 2 2.2 2.9 3.2-15.1 13.5-29.8 26.6-44.8 39.9-.9-.9-1.8-1.9-2.9-3.1 6.7-6 13.1-11.8 19.9-17.8-5.1-5.8-9.9-11.2-15.2-17.1-5 4.5-9.9 8.8-15 13.3-.9-.9-1.9-1.8-3.1-2.9 5.1-4.5 9.9-8.7 15.2-13.5-3.8-4.3-7.4-8.4-11.5-13-6 5.4-11.7 10.5-18.3 16.5-.7-1.1-1.5-2.4-2.4-3.7 13.5-12.2 27.1-24.3 41.1-36.9z"></path>
    <path d="m300.5 201.6c-6.2-1-10.9-1.6-15.5-2.5-.9-.2-1.5-1.5-2.3-2.2.9-.7 1.8-2 2.7-1.9 4.2.4 8.5.9 12.6 1.9 1 .2 1.4 2.6 2.5 4.7z"></path>
    <path d="m491.4 118.2c8.3 4.2 16.6 8.4 25.2 12.7-.6 3.2-.7 3.3-4.7 1.9-4.5-1.6-8.9-3.4-13.3-5.2-2.3 3.9-22.8 3.3-25.1-.8-2.9 1.2-5.8 2.6-8.7 3.7-2.8 1.1-5.7 2-8.8 3.1-.8-1.3-1.5-2.4-1.9-3.1 8.3-3.9 16.4-7.7 24.5-11.5h-.1c6.4-2.8 4.8-8.5 4.9-14.2-7.2 0-14.2 0-22.1 0 0 2.4.2 5.1-.1 7.7-.1.9-1.3 1.7-2 2.5-.7-.8-1.9-1.6-1.9-2.5-.2-3.9-.1-7.9-.1-11.7 6.8 0 13 .3 19.2-.1 2.4-.1 6.9 2.4 6.9-2 0-3.9-4.6-1.8-7.1-2.1-4.6-.4-9.2-.1-13.8-.1-.3-.5-.6-1-.9-1.6 1-.9 2.1-2.4 3.1-2.4 14.7.1 29.3.4 44 .8.9 0 1.8 1.1 2.8 1.7-.9.7-1.9 2-2.8 2-5.7.1-11.5-.2-17.2-.1-1.2 0-2.4 1.1-3.7 1.7 1.2.8 2.5 2.2 3.7 2.2 7.8.2 15.6.1 23.7.1v14.3c-3 .6-3 .6-4.4-10.1-7.5 0-15 0-22.6 0-1.8 8.2-1.3 10.3 3.3 13.1.1.2 0 0 0 0zm4.2 8.2c-9.4-8.2-12.4-8.2-19.9 0z"></path>
    <path d="m502.8 138.5c-6.2 0-11.6 0-17.3 0v15.9c-1.7.1-2.9.2-4.5.3 0-5.6 0-10.8 0-16.9-5.3 0-10.4.1-15.4-.1-1-.1-2-1.5-3-2.4.3-.3.6-.5.9-.8h43.3c0 4.9.1 9.2-.1 13.6 0 .9-1 2.6-1.6 2.6-3.7.4-7.5.5-11.2.4-.6 0-1.1-2-1.7-3.1 3.7-.4 7.3.1 9.8-1.4 1.2-.7.5-4.9.8-8.1z"></path>
    <path d="m491.5 118.4c.3-2.2 1-3.6 3.8-3.3 3.1.4 6.3.1 9.4.3 1 .1 1.9.9 2.8 1.4-.1.5-.3 1-.4 1.5-5.3 0-10.6 0-15.9 0 .2-.1.3.1.3.1z"></path>
    <path d="m507.5 110c-5.3 2.5-13.7 1.9-15.8-1.3 5.8.1 10.9-.4 15.8 1.3z"></path>
    <path d="m465.8 109.6c4.6-1.8 9.2-1.3 14 0-4.6 2.4-9.3 1.3-14 0z"></path>
    <path d="m478.6 119.1c-1.3-.5-2.5-1.3-3.9-1.4-3-.2-5.9-.1-9.3-.1 1.6-3.4 3.5-3.6 13.9-2.4-.2 1.3-.5 2.6-.7 3.9-.1 0 0 0 0 0z"></path>
    <path d="m255.3 800.7c1.6-1.8 2.9-3.1 4.5-4.9-6.1-5.6-12-10.9-18.1-16.5 8.9-9.8 17.6-19.5 26.4-29.1 2.1-2.2 4.5-2.3 6.8-.3 1.7 1.4 3.6 2.8 4.9 4.5.9 1.2.9 3.1 1.4 5.2-1.6-.2-2-.1-2.2-.3-7.1-7.1-7.2-7.1-14 .5-5.7 6.4-11.5 12.8-17.5 19.5 10.8 9.7 21.2 19.2 32 28.9 9.4-10.3 18.4-20.3 27.7-30.6 1.1 1 2 1.9 3.1 2.9-10.2 11.2-20.1 22.2-30.2 33.4-5.6-5.1-11.2-10-17-15.3-1.5 1.7-2.9 3.2-4.5 5 6.2 5.6 12.1 11 18.1 16.1 2.7 2.3 1.9 3.5-.7 5-6.6-5.9-13.2-11.8-20-18-1.5 1.6-2.8 3-4.4 4.6-1.1-.8-2.1-1.6-3.5-2.6 1.5-1.7 2.8-3.2 4.4-5.1-7.1-6.4-14-12.7-21.1-19.2.8-1 1.5-1.9 2.5-3.2 7.1 6.5 14 12.8 21.4 19.5z"></path>
    <path d="m286.2 795c-1.2 2.8-2.5 3.3-4.6 1.1-2.6-2.7-5.9-4.9-8.3-7.8-3.4-3.9-7-4.1-11.4-2.3-1.5.6-3.4 0-5.2 0-.1-.6-.1-1.3-.2-1.9 2.6-.9 5.2-1.9 8.4-3-2.7-2.4-5-4.5-7.5-6.8.9-2.6 2-3.7 4.5-1.2 3.2 3.1 6.6 6 10.1 9.1 1.7-1.9 3.2-3.5 5.1-5.6-3.5-3.1-6.9-5.9-10-9.1-.8-.8-.6-2.6-.9-3.9.5-.2 1-.4 1.5-.5 3.9 3.4 7.8 6.9 11.9 10.5 3-3.2 5.8-6.2 8.9-9.6 1.1.9 2.1 1.8 3.2 2.8-3 3.3-5.7 6.4-8.8 9.8 3.6 3.3 7 6.4 10.6 9.7-.9 1-1.6 1.8-2.5 2.8-3.5-3.2-6.8-6.1-10.6-9.5-1.7 1.8-3.3 3.4-5.2 5.5 3.8 3.4 7.4 6.6 11 9.9z"></path>
    <path d="m274.2 800.3c-5.7-2.6-1.1-6.1-2.1-9.2 4.1 1.2 4.1 1.2 2.1 9.2z"></path>
    <path d="m258.7 689.9c7.3-2.1 14.6-4.3 21.9-6.4-4.5 9.3.5 24.4-16.1 24-11.4-4.7-12.5-10.7-5.8-17.6z"></path>
    <path d="m302.7 729c-1.1-7.9-7.8-7.3-11-10.6-3.4-3.5-14.8-2.2-7.7-12.2 4.5-6.4 7.8-13.3 18.8-8.5 35.9 15.5 60.9 39.3 69.4 79.2 5.2 24.4 4.7 31.3-17.5 44.2-27.9 16.4-59.2 16.8-90.9 15.4 17.9-3.8 33.7-10.2 45-25.4 12-16.2 11-34.5 7.8-52.4-2.7-14.8-30.9-25.4-50.3-20.6-30.2 7.5-44.6 33.6-39 70.8-25.4-33.5-8.8-115.3 27.3-126.7-3.7 11.7-5.4 22.7 9 27.2zm56.8 41.9c-.4-3.7-.1-10.7-4.2-9.2-12.2 4.5-15.1-4.6-20.4-11.1-3.2-3.9-7.4-6.8-12.7-7.6-1.1-1.1-1.6-2.1-3.2-3.5-1.5-1.8-2.1-2.6-3.2-3.5-1.6-2.4-1.9-3.5-4.1-4.2-.4-.1-1.2 1-1.8 1.5 1.7 1.1 3.4 2.2 5.1 3.3 1.1 1.2 3.4 3.5 3.4 3.5s2.2 2.4 3.3 3.6c4.3 6.6 8.8 13.1 12.7 19.9 6.1 10.8 12.5 19.2 25.1 7.3"></path>
    <path d="m113.4 643.5c9.7.4 19.4 1.9 29 1.1 31.6-2.4 53-34.8 42.9-63.9-7.3-20.8-37.9-32-61.7-22.8-11.3 4.3-19.9 12.5-30 20.2 8.4-46.5 50.5-84.4 81.9-74.2-.4 6.4-8.8 6.9-9.5 12.8-.6 5.1.4 9.7 6.4 9.8 4.3 0 7.7-1.2 3.6-7.3-3.2-4.8 1.7-4.7 5.1-5 13.2-1.1 19.4 7.3 24.3 17.4 4.9 10.2 9.9 20.2 17 29.4 11.9 15.5 10.5 34.6 9.9 52.6-.2 6.4-10.4 1.3-15.9 5.2-4.4 3.1-4.4-4.2-5.1-7.8-3.9-20.2-9.9-39.5-23.1-56.3 15.5 25.6 13.2 54.9 17.2 81.8 7.2 3 6.3-8.7 11.8-4.1 3.8 3.1.9 7.5-1.2 10.8-2.2 3.4-3 5.9 1.8 7.7 3.4 1.3 10.1-2.2 8.6 6.4-1 5.9-4.3 9-9.2 11.3-11.7 5.7-24.3 7.6-36.7 5.3-24.8-4.6-48.1-13.3-68.1-29.5zm84.2-112.2c0-3.1-2.2-4.4-4.3-4-4.3.8-9.1 1.7-10.4 6.8-.8 3.1 2.3 3.9 4.2 3.7 4.4-.5 8.7-1.7 10.5-6.5zm-24.2.8c-1.1 2.5-2.2 3.8-1.9 4.3.8 1.2 2.2 2.1 3.4 3.1.5-.9 1.6-2 1.3-2.7-.5-1.5-1.6-2.8-2.8-4.7z"></path>
    <path d="m166 432.9c-2 2-9.6 7 1.1 8.4.7.7 1.4 1.4 2.2 2.1-1.9 8.8-17 10.2-12.3 23.6 1.2 3.4-7.3 2.9-11.6 1.5-10.7-3.6-17.9-11.9-25-20.1-15.7-18-29.5-65.5-25.1-85.4 16 47.5 46.6 53.8 82.5 41 14.2-5.1 21.2-30.1 14.7-50.3-9.8-30.3-39-42.1-77.1-31 33.8-31.2 115.2-26.7 127.5 8.2-21.9-4.7-25.9 12.2-30.5 26.2-4.7 14.6-7.7 29.7-14.1 43.8z"></path>
    <path d="m199.8 401.5c11.7-5.8 11.5-18.6 16.6-28.3 2.1-4 .1-13.6 9-9.6 6.6 3 16.7 6.4 12.3 17-7.1 17.1-6.1 38.7-26.9 48.7-4.2 2-7.2 7.3-9.6 11.7-6.3 11.5-12.5 2.6-17.3-.5-6.3-4-4.2-9 1.1-13.7 7.7-6.8 13.7-14.5 14.9-25.3z"></path>
    <path d="m234.6 337.3c3.1 6.4 11.9 12.8 5.9 17.7-5.2 4.3-14.6 2.2-17.6-7.4 5.8-.8 10.2-3.4 11.7-10.3z"></path>
    <path d="m315.1 249.9c-11.4 6.4-23 12.5-34.2 19.2-4.6 2.8-13.3 4.5-5 13.3 3.2 3.5-1.8 6.4-4.8 6.8-7.4 1.1-11.3 2.2-10.8 12.1.4 8.7-7.4 6.1-12.3 2.4-12.9-9.6-21.3-22.8-24.6-38.1-5.6-25.5-6.7-51.4.2-81.7 8.3 50.1 27 66.4 68 63.3 11.1-.8 28.6-17.4 29.2-27 2.7-46.5-20.4-65.7-60.4-69.6 27.5-6.1 54.6-1.8 81.3 5.4 17.3 4.6 30.8 14.6 35.6 33.4 2.3 8.9-1.1 8.9-7.5 5.5l-.2-.1c-10.2-7.4-15.3-1.8-20.2 6.8 0 0-.1.1-.1.1-14.2 10.5-18.4 27.6-27.7 41.4-3.7 1.2-5.3 3.9-6.5 6.8z"></path>
    <path d="m318.3 246.7c2.2-.2 3.2-1.1 3.4-3.3v-.1c4.6.2 7.7-2.9 9.2-6.3 7.5-17.5 17.4-22 32-7.5-9.4 17.3-19.1 34.2-33.3 48.5-7.5 7.6-16.9 8.8-25.7 11.7-7.7 2.5-11.8-6-15.4-10.6-3.9-5.1 3.5-6.9 7-9 8.3-5 16.4-10 19.5-20 2.7-.3 4.4-1 3.3-3.4z"></path>
    <path d="m370.1 195.3c-3.7 10 10.1 21.9-3.4 30.8h-.1c.5-7-5.2-9.2-9.7-11.8-5.2-2.9-9.7-5.2-7.7-12 0 0 .1-.2.1-.2 10 7 13.4-5.8 20.8-6.9z"></path>
    <path d="m534.1 202.2c-24.4 6.7-48.4 15.7-74.1 7.3-5.4-1.8-10.4-4.4-16.2-4.6-6.8-.2-11.3-.5-10.6-10.5.7-10.1-16.6-17.5-26.3-12.8-8.8 4.3-10.9-2.9-12.2-8.6-2.2-10.3.1-20.4 3.2-30.3 6.1-19.9 38.3-55.3 59.1-65-19.8 34.4-20.4 58-1.9 77.7 13.3 14.1 32.9 20.2 45.3 14.1 19.9-9.7 33.5-35.6 29.9-57-4.4-26.5-17.3-39.3-43.1-43 10.6-4.1 22-1.8 33.1 9.4 16.1 16.2 31.8 32.8 43.2 52.9 6 10.6 10.7 22 8.7 34.2-1.7 9.9.9 23-17.2 23.7-5.8.2-9.4 14.9-20.8 12.4-.2-1.5-.4-2.9-.6-4.4-.7.3-1.4.7-2.1 1 1 1.1 1.6 2.4 2.6 3.5zm-109.6-34.1c19.6 23.1 100.5 23.3 112-.9-37.9 23.6-73.1 12.2-112 .9zm128.5 7.6c-1.7-.4-3-.9-4.4-.9-.5 0-1 1.3-1.5 2.1 1.3.5 2.6 1.2 3.9 1.3.4 0 1-1.3 2-2.5z"></path>
    <path d="m654.4 250.1c-1.6-2.8-3.5-4.2-6.9-3.4.9-3.4-.1-5.9-3.5-7.1l.2.2c-5.4-12.4-11.5-23.7-23.9-30.5l-.1.4c-1.3 2.8 1.1 6.7-3.5 7.6-3.5.7-4.8-2.8-5.7-5.3-2.3-6.4-1.1-15.2-13.6-10.3-6.5 2.6-7.8-4.6-5.4-10.2 4.4-10.3 12.6-17.6 21.4-23.9 19.3-13.9 71.6-21.6 99.9-13.1-22.1 1.9-39.5 4.8-50.9 21.2-11.3 16.2-12.7 33.6-8.5 52.1 3.5 15.7 25.1 25.7 48.4 22.5 26.1-3.6 44.8-30.2 43.6-62.1 6.9 10.6 10.5 39.9 6.9 63-1.8 11.8-2.3 24.3-9.6 34.3-8.2 11.3-15.4 27.5-34.1 13.6-.8-.6-2.2-.2-3.3-.4-5.2-1.1-13.8 6.8-14.7-.1-1.1-7.7 3.5-17 12.5-23.8-15.4-7.2-30.6-14.2-45.9-21.3zm47.5 39.9c5.3.6 9.2 1.7 12.4-1.1.4-.3-.5-3.5-1.5-3.9-4.4-2.1-7.2.8-10.9 5z"></path>
    <path d="m654.2 250.3 3.2 3.3c2.1 12.5 13.5 13.9 22.1 18.7 3.4 1.8 11.7 1.4 7.3 7.8-3.8 5.5-6.7 16.2-17.3 11.8-22.9-9.5-41.5-24-54.3-46-5.2-8.9 1.2-13.3 4.9-17.4 5.2-5.8 8.7.7 11.6 4.6 3.1 4.2 5.5 8.5 11.9 6.8 0 0-.1.4-.1.4-1 3.5.8 5.1 3.6 6.7"></path>
    <path d="m794.9 452.3c-.5-2.7-.1-6.2-1.7-8-20.1-22.4-29.7-48.9-26.2-78.5 2.1-17.4-15.3-7.4-18.1-16.1-.7 1.2-1.8 2.3-2.1 3.5-1 4.6-2.7 10.9-8 7.6-5.5-3.5.5-9 2.3-13.4 2.4-5.9 8.5-4.3 12.9-5.9-.4-7.2-13.6-3.8-10.5-13 2.5-7.3 9.4-9.7 16.1-11.2 35.6-8.2 65.6 5.3 94.1 24.5-.6.6-1.2 1.2-1.8 1.8-40.7-2.5-55.8 6.3-70.9 41.2-4.8 11.1 3 31.3 13.4 37.6 16.2 9.9 32.2 16 51.5 8.8 24.5-9.2 36.8-29.2 35.1-57 7.8 40.8-17.8 68.8-40.4 96.8-11.9 14.7-29.3 23.8-50.1 13.6 16.6-14 17.2-18.9 4.2-32.7z"></path>
    <path d="m740.1 373.2c10.8-4.1 16.7-4.9 19.4 10.9 3.8 22.2 12.1 43.8 28.2 63.6-9 1.2-17.7 9.4-23 3.5-10.4-11.6-21.8-23.9-24.5-40.1-2-12.1-.7-24.7-.9-37.1z"></path>
    <path d="m794.7 452.1c1.4 17.7-5.4 27.3-16.4 22.5-5.9-2.6-8.8-7.3-1.9-11 6.4-3.5 10.4-10.8 18.5-11.3 0 0-.2-.2-.2-.2z"></path>
    <path d="m805.1 548.1c-10.7-1.5-8.1-6.4-1.6-9.6 5.8-2.8 10.9-1.8 6.7-12-4.8-11.7 5.8-9.5 11.9-6.9 15.3 6.4 26.8 17.5 33.9 32.4 11.3 23.7 19.3 48.4 18.5 79.6-6.8-13.7-8.5-25.4-16.3-34.4-17.2-19.8-59.6-25-74.2-8.5-22.2 25-7.8 61.4 12.2 73.7 20.1 12.4 39.6 9.9 60.1 2.3-.1 0 0 .1 0 .1-35.5 23.3-73.8 25.4-113.6 14.7-8.5-2.3-16.2-9.3-17.3-17.5-1.3-9.5 4.2-19.4 2.4-29.6 9.6-.7 18.5.1 21.3 11.7 4.5-1.2 5.2-5.1 5.6-8.1 4.8-31.2 19.2-56.7 44.2-76.2 3.4-2.9 7-6.3 6.2-11.7z"></path>
    <path d="m749 628.3c-22.5-13.8-22.4-13.8-9.9-46.1 6.2-15.9 19.2-26.2 31.2-37 7.9-7.2 11 6 18.1 7.1 5 .8 1 6.5-1.8 9.1-19.8 18.1-29.7 41.9-37.6 66.9z"></path>
    <path d="m649.9 737.8c.2.5.4 1 .6 1.5 1.2-.9 3.2-1 4.4-2 13.8-7.8 27.1-16 40.5-24.3 5.6-3.4 6.3-7.2-2.4-6.2-1.8.5-2.7-.1-2.5-2.4 1.6-5.6 6.1-6.2 10.8-6.2 3.8 0 7-.5 6.7-5.3-1.2-20.7 8.9-10.6 15.4-5.1 25.5 21.9 25.1 52.5 25.1 82.1 0 10.2.3 21.5-6 31.5-1-18.6-4.9-35.7-19.4-48.4-14.4-12.6-31.9-14.9-49.8-12.9-15.9 1.8-27.8 24.3-26.3 47.4 1.8 29.2 26.2 46.8 65 46.9-38.8 22-118.5-5.5-121-41.8 20.8 6.8 36.2-6.7 52.9-48.4-8.6 5.4-11.8 12.7-16 18.7-4.2 5.9-10.3 13.3-15.8 9.3-5.4-3.9-7.4-14.9-3.4-21.7 12.6-21.5 24.5-43.6 52-51 10.1-2.7 14.9 3.5 18.4 8.1 6 8.1-4.7 7.8-8.4 10.6z"></path>
    <path d="m539.6 815.6c-20-14.8-43.2-16.7-66.9-15.8-6.2.2-12.3 2.2-18.6 2.8-4.6.5-12.3 6.4-12.1-4.6.1-6.6-3.4-14.5 8-17.6 37.7-10.1 72.4-7.4 103.9 18.2 22.6 18.3 25 25.5 13.3 52.2-7.2 16.4-34.3 45.5-55.3 57.6 21.4-34.6 20.1-64.2-10.5-88.4-10.8-8.6-25.8-6-35.4-1.5-26.5 12.4-31.6 35.6-22.2 80.3-36.6-16.8-59.3-73.2-38.8-100.3 5.6 15.3 18.5 20.3 31.1 15.5 32.3-12.2 63.5-10.9 95.1 1 2.6 1 5.6.5 8.4.6zm18.1-6.1c-.4-.8-.9-1.6-1.3-2.4-.9.5-2.1.7-2.5 1.5-1.1 1.7-.1 2.8 1.7 2.7.7-.1 1.4-1.2 2.1-1.8z"></path>
    <path d="m432.8 799.3c-1.8-3.6 1-10.3-5.6-10.7-4.4-.2-6.2 4.1-7.4 8-2.3 1.8-7.2 3.5-3.7 6.8 3.6 3.3 5-1.3 6.3-4.2 8.6-1.7-3.4 17.2 10.1 10.2 5-2.5 1.9-6.8.3-10.1z"></path>
    <path d="m730.6 358.3c-39.6 25.6-46.1 62-48.9 100.4-1.1 15.4-4.7 30.7-11.6 44.6-4.2 8.5-9.7 16.7-16.3 23.5-6.6 6.9-14.4 13.7-23.9 15.8-7.2 1.6-13.6 5.2-17.9 11.3s-6.3 13.6-7.9 20.7c-12.4 54.8-82 79.2-125.9 48-3.8-2.7-6.3-9-13.6-1.6-37.9 38.3-98.5 37.4-133.5-2-9.4-10.6-18.6-17.3-33-21-28.1-7.2-47-27.4-51.6-56-4.5-27.4 5.1-52.4 27.7-69.7 8.3-6.4 10.8-12.6 11.5-22.4 3.3-42.9 20.2-63.9 61.2-76.1 8-2.4 12-8.3 17.3-13.2.3-.3.6-.5.9-.8 14.1-12.7 30.2-23.9 48.5-29.6 8.8-2.7 18-4 27.2-3.8 4.9.1 9.4.9 14.2 1.7 5.2.9 10.5 2.1 15.2 4.6 3.5 1.8 7 3.3 10.6 4.9 7.1 3 14.7 4.4 22.3 4.1 4.5-.2 8.9-.9 13.3-1.9 2.5-.6 4.9-1.3 7.4-2.1s5.1-2.2 7.6-2.8c31.6-7.5 58.7 2.7 82.5 22.7 8 6.7 14.4 8.2 24.3 5.1 28.3-8.9 57.4-8.8 92.4-4.4z"></path>
  </g>
  <path d="m730.6 358.3c-39.6 25.6-46.1 62-48.9 100.4-1.1 15.4-4.7 30.7-11.6 44.6-4.2 8.5-9.7 16.7-16.3 23.5s-14.4 13.7-23.9 15.8c-7.2 1.6-13.6 5.2-17.9 11.3s-6.3 13.6-7.9 20.7c-12.4 54.7-82.1 79.2-125.9 48.1-3.8-2.7-6.3-9-13.6-1.6-37.9 38.3-98.5 37.4-133.5-2-9.4-10.6-18.6-17.3-33-21-28.1-7.2-47-27.4-51.7-56-4.5-27.4 5.1-52.4 27.7-69.7 8.3-6.4 10.8-12.6 11.5-22.4 3.3-42.9 20.2-63.9 61.2-76.1 8-2.4 12-8.3 17.3-13.2.3-.3.6-.5.9-.8 14.1-12.7 30.2-23.9 48.5-29.6 8.8-2.7 18-4 27.2-3.8 4.9.1 9.4.9 14.2 1.7 5.2.9 10.5 2.1 15.2 4.6 3.5 1.8 7 3.3 10.6 4.9 7.1 3 14.6 4.4 22.3 4.1 4.5-.2 8.9-.9 13.3-1.9 2.5-.6 5-1.3 7.4-2.1 2.5-.8 5.1-2.2 7.6-2.8 31.6-7.5 58.7 2.7 82.5 22.7 8 6.7 14.4 8.2 24.3 5.1 28.5-9 57.5-8.9 92.5-4.5zm-264.8 51.3c0 18.9-6.9 29.7-21.3 36.8-28 13.9-73.8-6.4-84.1-36.2-1.1-3.2-2.5-6.5-2.8-9.8-1-10.1-6.5-10.1-14.4-7.8-24 6.8-40.1 27.5-40.1 57.3 0 14.3-4.5 21.6-16 29.8-22.1 15.6-32.3 38.8-26.6 65.9 4.6 21.9 20.5 34.2 42.2 40 12.7 3.4 17.4.6 20.1-13.1 8-40 27-52.6 66.1-48.9 26.6 2.5 35.4 18.6 29.3 44.9-1 4.3-1.2 8.2-6.8 7.2-5.2-1-2.7-5.2-2.7-8.3 0-23.1-17.6-35.7-39.8-28.4-30.7 10-42.7 55.3-19.4 77.7 20.5 19.6 46.4 20.3 72.3 13.1 21.1-5.8 38.5-15.9 37.9-42.2-.2-6.5 5.5-10 11.5-10.3 7.9-.4 3.9 6.5 4.9 10.1 6.9 25.5 20.7 36 47.3 34.4 28.2-1.7 48.4-15.6 59.6-41.6 8.8-20.5 4.4-31.8-15.3-40.7-3.1-1.4-6.1-3-9.2-4.5-22-11.1-32.8-31.1-27.7-51.1 5.4-21 27.3-36.5 50.7-35.5 4.7.2 11.9-1.4 12.1 5.9.3 8.3-7 4.8-11.5 5.5-30 4.6-43.8 28.9-29.8 52.8 8.4 14.5 33.4 22.6 55.1 18.1 33.8-7.1 63.4-44.5 64.3-81.5.6-25.1-2.3-50.7 15.6-72.4 6.1-7.4-.5-10.6-7.3-9-15.3 3.6-30.6 7.3-45.3 12.7-11.3 4.1-19 3.5-28.2-5.8-32.5-32.7-69-36.4-104.3-9.1-10.2 7.9-13.4 5.3-20.1-1.5-15.7-15.9-35.2-22.4-57.2-21.1-30.3 1.8-55.4 29.8-51.8 56.9 2.9 22.1 31.7 39.9 56.9 34.9 25.1-4.9 32.1-22.7 16.4-42.3-2.3-2.9-4.7-4.5-1.7-8.4 3.7-4.8 6.6-2.5 9.9.3 7.8 6.8 11.2 13.3 11.2 25.2z" fill="#f4f4f4"></path>
  <g fill="#fff">
    <path d="m451.6 482c3.3-.5 6.3-1 9.4-1.5 1.5-.2 2.9-.6 4.4-.9.6-.1.9-.4.9-1.1 0-3.5-.2-7-2.7-9.8-.4-.5-.4-1.3-.6-2 .7-.2 1.5-.6 2-.4 2.3.8 4.7 1.6 6.9 2.6 1.3.6 1.4 1.5 1.3 3-.2 2.1 0 4.3 0 6.5 3.1-.6 5.9-1.1 8.7-1.6 3.8-.7 7.5-1.4 11.3-2 .7-.1.9-.4.9-1.1 0-2.4 0-4.9 0-7.3 0-.5-.3-.9-.5-1.4-.5-1-1.2-1.9-1.7-2.9-.5-1.1 0-1.7 1.1-1.4 3.1.7 6.1 1.7 8.5 3.9 1 .9 1.3 1.9.9 3.2-.5 1.5-.8 3.1-1.2 4.8 1.9 0 3.5-.7 5-1.3.7-.3 1.5-.6 2-1.2 1.6-1.6 3.5-1.6 5.4-1.2 2.6.7 5.2 1.5 7.7 2.4 1.4.5 2.2 1.7 2 2.8-.2 1.3-1.4 2.2-3.1 2.3-6.2.6-12.4 1.2-18.6 1.7-.7.1-1 .3-1.1 1.1-.5 3.2-1 6.5-1.6 9.7-.1.7-.6 1.4-1.1 2-1 1-2.4.8-3-.5-.4-.8-.7-1.8-.7-2.8-.1-2.5 0-5 0-7.5 0-.4 0-.8 0-1.4-6.9 1.1-13.7 2.2-20.6 3.3v2.9c.1 2 .2 3.9.3 5.9 0 .5 0 1-.2 1.5-.3 1-.8 1.9-2 2.1s-1.9-.5-2.5-1.4c-1.5-2.1-1.9-4.6-2.2-7.1-.1-.7-.2-1.4-.3-2.3-1.8.4-3.6.7-5.3 1.1-1.1.2-2.2.4-3.3.6-1.8.4-3.4-.2-5-1-.4-.2-.7-.4-1.2-.6 0 .5-.1.8-.1 1.2-.1 6.4-.3 12.9-.4 19.3 0 2.2-.6 4.2-2 5.9-1 1.2-2.2 1.3-3 0s-1.5-2.8-2.3-4.1c-.2-.3-.5-.6-.8-.6-3.7.4-7.4.9-11.2 1.3v4c0 2.5-2.1 3.2-3.7 2.3-2.5-1.5-4.4-3.6-4.8-6.6-.2-1.4.5-2.9.6-4.3.5-6.1 1.1-12.2 1.4-18.4.3-6.1.2-12.1.2-18.2 0-1.1-.5-2.2-.7-3.3-.2-.6-.4-1.2-.6-1.9-.3-1.6.4-2.3 1.9-1.7 1.3.5 2.6 1.2 3.9 1.7.5.2 1.2.4 1.7.2 4.7-1.9 9.4-3.8 14.1-5.8.8-.3 1.5-.5 2.3 0 1.4 1 2.9 1.9 4.3 2.9 1.5 1 1.6 2.1.4 3.3-.9 1-1.4 2-1.3 3.4.1 5.3 0 10.5 0 15.8-.1.8-.1 1.2-.1 1.9zm-19.7 21.5c3.6-1 7.1-2 10.7-3 .8-.2 1-.6 1-1.4 0-5 0-10 0-15.1 0-.4 0-.7-.1-1.1-3.9.6-7.7 1.2-11.6 1.8zm-.1-23c1.5-.7 2.9-1.2 4.2-2 1.2-.7 2.5-.9 3.8-.7 1.2.2 2.4.6 3.6.9 0 0 .1-.1.1-.2 0-5.3 0-10.5 0-15.8 0-1.3-1-1.9-2.3-1.5-2.9.9-5.7 1.9-8.6 2.8-.6.2-.9.5-.8 1.1.1 1.3 0 2.6 0 3.9z"></path>
    <path d="m474.4 503c1 .7 1.7 1.2 2.5 1.8 1.6 1.3 3 2.7 3.8 4.7.4 1.1.2 2-.4 3-7.5 10.6-16.7 19.2-28.2 25.2-.9.5-1.8 1-2.8 1.4-.5.2-1.2 0-1.8.1.2-.6.3-1.4.7-1.9.6-.7 1.5-1.2 2.2-1.8 8.5-6.9 15.7-14.9 20.6-24.7 1-2 1-4 .4-6-.2-.8-.6-1.1-1.5-1-2.1.3-4.2.5-6.3.7-2.3.2-4.4-.7-6.4-1.6-.3-.1-.6-.7-.5-.9.2-.3.6-.7 1-.7 6-.9 11.9-1.6 17.9-2.6 7.6-1.3 15.2-2.8 22.8-4.3.7-.1 1.4-.5 2-.9 1.6-1.2 3.4-1.3 5.2-.7 2.1.7 4.1 1.6 6.1 2.5.5.2.9.6 1.2 1 .8 1 .6 2.3-.6 2.8-.8.3-1.8.5-2.7.5-6.8.6-13.5 1.1-20.3 1.7-.1 0-.3.1-.6.1.7.6 1.3 1.2 2 1.7 2.1 1.7 2.7 3.8 2.4 6.6-.4 4-.5 8-.5 12 0 2.3.2 4.6.4 6.9.2 2 1.2 3.2 3.3 3.6 3.9.8 7.9.8 11.9.5 3-.2 5.9-.6 8.8-1 2.2-.3 3.7-1.7 4.2-3.8 1.1-4.5 1.9-9 2.9-13.5.2-.8 0-2.1 1.2-2.1 1 0 1 1.2 1.1 2 .7 3.9 1.3 7.9 2.2 11.7.4 1.8 1.4 3.5 2.4 5.1 2.4 3.7 1.6 6.1-2.7 6.9-4.4.8-8.8 1.2-13.2 1.4-5.9.4-11.9.5-17.8-.5-.6-.1-1.1-.2-1.7-.3-4.8-.8-7.7-3.7-8.4-8.5-.6-4.2-1.1-8.5-1.4-12.8-.3-3.6-.1-7.2-.2-10.8 0-.8-.1-1.6-.3-2.3-.5-1.9-1.5-2.4-3.4-2.1-2.6.2-4.9.5-7.5.9z"></path>
    <path d="m459.2 458c.5-.1.9-.3 1.2-.3 3 .4 5.8-.6 8.7-1.2 3.2-.7 6.3-1.5 9.4-2.3.3-.1.8-.5.8-.8 0-2.7 0-5.3-.1-8-.1-1.5-.9-2.8-1.9-4-.8-.9-1.1-2.3-1.4-3.5-.2-.8.4-1.3 1.3-1.3 4.2.3 7.9 1.7 10.8 4.9.6.7.5 1.4.4 2.3-.6 2.7-1 5.4-1.5 8.5 3.9-1.2 7.6-1.6 10.6-3.9 1.1-.8 2.3-.7 3.4-.3 2 .8 3.9 1.7 5.8 2.6.1 0 .2.1.3.2.4.8 1.1 1.6 1.2 2.5s-1.4 1.7-2.7 1.7c-3.4.2-6.7.3-10.1.6-2.4.2-4.7.7-7.1 1-.9.1-1.3.5-1.3 1.5-.4 4.2-.9 8.4-1.4 12.5-.1.7-.3 1.4-.6 2.1-.4 1-1.1 1.5-2.2 1.6s-2-.4-2.4-1.3c-.6-1.6-1.2-3.2-1.3-4.8-.1-3 .2-5.9.3-8.9 0-.3 0-.5 0-1-2.1.5-4.1.9-6 1.3-2.2.5-4.4 1.2-6.6 1.7-.7.2-1.5.2-2.1 0-1.5-.6-2.9-1.4-4.3-2.2-.6-.3-.8-.7-1.2-1.2z"></path>
  </g>
</svg>
